<svg width="74" height="74" viewBox="0 0 74 74" fill="none" xmlns="http://www.w3.org/2000/svg">
    <path d="M36.7639 19.0408C37.9909 19.0408 39.1372 19.2668 40.2028 19.7189C41.2684 20.1387 42.1887 20.736 42.9637 21.511C43.7387 22.2537 44.3361 23.1579 44.7559 24.2235C45.2079 25.2568 45.434 26.3708 45.434 27.5656C45.434 28.6958 45.2402 29.7129 44.8527 30.6171C44.4652 31.4889 43.9486 32.3931 43.3028 33.3295L39.1857 39.384C38.8628 39.8361 38.6367 40.3366 38.5076 40.8856C38.3784 41.4345 38.3138 41.9027 38.3138 42.2902V44.5667H35.8436V42.3871C35.8436 41.4507 35.9566 40.6757 36.1826 40.0622C36.4087 39.4163 36.7639 38.7382 37.2482 38.0278L41.3169 32.0217C41.8012 31.279 42.1887 30.5848 42.4794 29.939C42.8023 29.2931 42.9637 28.502 42.9637 27.5656C42.9637 26.6614 42.8023 25.8219 42.4794 25.0469C42.1887 24.2719 41.7528 23.6099 41.1716 23.061C40.6226 22.4798 39.9607 22.0277 39.1857 21.7048C38.443 21.3819 37.6357 21.2204 36.7639 21.2204C35.8274 21.2204 34.9717 21.398 34.1967 21.7532C33.4218 22.0761 32.7598 22.5282 32.2108 23.1094C31.6942 23.6907 31.2906 24.3688 30.9999 25.1438C30.7093 25.9187 30.564 26.726 30.564 27.5656H28.0938C28.0938 26.4031 28.3036 25.3052 28.7234 24.2719C29.1432 23.2386 29.7244 22.3344 30.4671 21.5595C31.2421 20.7845 32.1624 20.171 33.228 19.7189C34.2936 19.2668 35.4722 19.0408 36.7639 19.0408ZM38.7013 53.8181H35.4561V50.5728H38.7013V53.8181Z" fill="#0E0E0E"/>
</svg>